# File created by Blade
# Date/Time:  Mon Sep 22 21:09:19 2014
# Frame Rate: 120.000 fps
#------------------------------------------------------
:FULLY-SPECIFIED
:DEGREES
2483
root 3.957216 31.974844 -8.871370 33.941102 -19.280915 -28.233000
Spine -27.592268 -18.971937 26.299475
Head -2.804390 -6.172766 7.486255
LeftShoulder 7.801878 41.614219 30.421003
LeftArm 87.263022 21.189033 -47.516153
LeftForeArm -30.144533 -0.000000 74.647177
LeftHand -14.005354 -0.000000 -13.124176
LeftHandThumb1 -26.253704 0.000000 33.147579
RightShoulder -4.167249 -49.445819 -16.163681
RightArm 68.140250 -4.873093 42.274246
RightForeArm 72.678922 -0.000000 81.615865
RightHand 2.552088 -0.000000 17.564762
RightHandThumb1 -24.326973 -0.000000 -32.862282
LeftUpLeg -42.747164 14.732527 14.190090
LeftLeg 42.456654 -0.000000 -0.000000
LeftFoot -25.497452 7.767657 -2.534879
LeftToeBase 4.050334 -0.000000 -0.000000
RightUpLeg -160.570441 -13.877411 23.802062
RightLeg 62.662236 -0.000000 -0.000000
RightFoot 42.622808 -14.898934 4.603646
RightToeBase 45.359541 -0.000000 -0.000000
2484
root 3.934766 32.001735 -8.872853 33.676297 -19.124583 -28.384004
Spine -27.306729 -18.955063 26.113089
Head -2.719911 -6.508020 7.571632
LeftShoulder 7.687967 41.509492 30.465041
LeftArm 87.425882 21.323648 -47.340698
LeftForeArm -29.968612 0.000000 74.904495
LeftHand -14.583910 -0.000000 -12.368004
LeftHandThumb1 -26.253704 0.000000 33.147579
RightShoulder -4.403905 -49.608306 -15.988774
RightArm 68.018394 -4.809137 42.275546
RightForeArm 72.216104 -0.000000 82.057931
RightHand 2.459850 -0.000000 17.449503
RightHandThumb1 -24.326973 -0.000000 -32.862282
LeftUpLeg -42.531956 14.771560 14.545491
LeftLeg 42.650308 -0.000000 -0.000000
LeftFoot -25.100113 7.095776 -2.343063
LeftToeBase 3.713789 -0.000000 -0.000000
RightUpLeg -160.431564 -14.535315 23.578826
RightLeg 62.838689 -0.000000 -0.000000
RightFoot 42.499749 -15.020613 4.455435
RightToeBase 45.382651 -0.000000 -0.000000
2485
root 3.907403 32.030981 -8.874971 33.348363 -18.981264 -28.544863
Spine -26.957447 -18.936994 25.875315
Head -2.587125 -6.839236 7.671280
LeftShoulder 7.631777 41.410486 30.566730
LeftArm 87.617022 21.414050 -47.066335
LeftForeArm -30.003321 -0.000000 75.139657
LeftHand -15.126273 -0.000000 -12.208640
LeftHandThumb1 -26.253704 0.000000 33.147579
RightShoulder -4.584937 -49.772418 -15.855930
RightArm 67.845043 -4.824057 42.437185
RightForeArm 71.822960 0.000000 82.501207
RightHand 2.407359 -0.000000 17.281132
RightHandThumb1 -24.326973 -0.000000 -32.862282
LeftUpLeg -42.279791 14.821387 14.974505
LeftLeg 42.934405 -0.000000 -0.000000
LeftFoot -24.713505 6.228652 -2.294406
LeftToeBase 3.639438 -0.000000 -0.000000
RightUpLeg -160.221510 -15.203663 23.317591
RightLeg 63.077714 -0.000000 -0.000000
RightFoot 42.397851 -15.000937 4.186876
RightToeBase 45.269564 -0.000000 -0.000000
2486
root 3.876636 32.063243 -8.882206 33.018928 -18.823299 -28.739667
Spine -26.573849 -18.874737 25.613012
Head -2.441180 -7.313480 7.847894
LeftShoulder 7.589124 41.335389 30.701454
LeftArm 87.909310 21.439595 -46.628792
LeftForeArm -30.092189 -0.000000 75.294798
LeftHand -15.429605 -0.000000 -11.592161
LeftHandThumb1 -26.253704 0.000000 33.147579
RightShoulder -4.838354 -50.030824 -15.622451
RightArm 67.726174 -4.793590 42.571913
RightForeArm 71.401678 0.000000 82.940325
RightHand 2.393373 -0.000000 17.094591
RightHandThumb1 -24.326973 -0.000000 -32.862282
LeftUpLeg -42.105031 14.991750 15.434218
LeftLeg 43.351469 -0.000000 -0.000000
LeftFoot -24.144723 5.098690 -2.120024
LeftToeBase 3.309721 -0.000000 -0.000000
RightUpLeg -159.986989 -15.866409 23.057976
RightLeg 63.378472 -0.000000 -0.000000
RightFoot 42.241889 -14.998687 4.031279
RightToeBase 45.126007 -0.000000 -0.000000
2487
root 3.839385 32.096488 -8.885578 32.518720 -18.734303 -28.909677
Spine -26.017038 -18.868659 25.212952
Head -2.284761 -7.697081 8.076662
LeftShoulder 7.461251 41.228724 30.784151
LeftArm 88.184196 21.497208 -46.151688
LeftForeArm -30.244106 -0.000000 75.443946
LeftHand -16.009242 -0.000000 -11.140955
LeftHandThumb1 -26.253704 0.000000 33.147579
RightShoulder -5.073700 -50.159960 -15.361131
RightArm 67.524219 -4.917339 42.795475
RightForeArm 71.040531 -0.000000 83.340827
RightHand 2.397883 -0.000000 16.949316
RightHandThumb1 -24.326973 -0.000000 -32.862282
LeftUpLeg -41.724964 15.193960 15.920390
LeftLeg 43.758152 -0.000000 -0.000000
LeftFoot -23.657743 3.736765 -2.138799
LeftToeBase 3.061960 -0.000000 -0.000000
RightUpLeg -159.591302 -16.516584 22.684788
RightLeg 63.757040 -0.000000 -0.000000
RightFoot 42.096087 -14.925640 3.770416
RightToeBase 45.085116 -0.000000 -0.000000
2488
root 3.795461 32.134660 -8.893029 32.036082 -18.681541 -29.087323
Spine -25.459071 -18.780719 24.737922
Head -2.089945 -8.218068 8.357761
LeftShoulder 7.378343 41.105384 30.936048
LeftArm 88.454412 21.555295 -45.701388
LeftForeArm -30.404340 -0.000000 75.583608
LeftHand -16.424912 -0.000000 -10.621961
LeftHandThumb1 -26.253704 0.000000 33.147579
RightShoulder -5.445974 -50.480094 -14.920868
RightArm 67.478980 -4.924561 42.938228
RightForeArm 70.722535 -0.000000 83.676117
RightHand 2.443398 -0.000000 16.829804
RightHandThumb1 -24.326973 -0.000000 -32.862282
LeftUpLeg -41.335077 15.447493 16.443676
LeftLeg 44.169020 -0.000000 -0.000000
LeftFoot -23.222876 2.171589 -2.459021
LeftToeBase 2.809273 -0.000000 -0.000000
RightUpLeg -159.179691 -17.092473 22.266647
RightLeg 64.202086 -0.000000 -0.000000
RightFoot 41.870462 -14.977880 3.607752
RightToeBase 45.330376 -0.000000 -0.000000
